<svg width="200" height="200" viewBox="0 0 200 200" fill="none" xmlns="http://www.w3.org/2000/svg">
  <!-- Background Circle -->
  <circle cx="100" cy="100" r="90" fill="#f8fafc" stroke="#e2e8f0" stroke-width="2"/>
  
  <!-- Bar Chart Section (Left) -->
  <g transform="translate(20, 0)">
    <!-- Bars -->
    <rect x="5" y="60" width="12" height="40" fill="#3b82f6" rx="2"/>
    <rect x="20" y="40" width="12" height="60" fill="#06b6d4" rx="2"/>
    <rect x="35" y="70" width="12" height="30" fill="#8b5cf6" rx="2"/>
    <rect x="50" y="30" width="12" height="70" fill="#10b981" rx="2"/>
    
    <!-- Base Line -->
    <line x1="0" y1="105" x2="70" y2="105" stroke="#64748b" stroke-width="1"/>
  </g>
  
  <!-- Line Chart Section (Right) -->
  <g transform="translate(105, 40)">
    <!-- Grid Lines -->
    <line x1="0" y1="20" x2="70" y2="20" stroke="#e5e7eb" stroke-width="1"/>
    <line x1="0" y1="40" x2="70" y2="40" stroke="#e5e7eb" stroke-width="1"/>
    <line x1="0" y1="60" x2="70" y2="60" stroke="#e5e7eb" stroke-width="1"/>
    <line x1="0" y1="80" x2="70" y2="80" stroke="#e5e7eb" stroke-width="1"/>
    
    <!-- Line Chart -->
    <polyline points="0,70 15,50 30,30 45,45 60,20 70,35" 
              fill="none" stroke="#ef4444" stroke-width="3" stroke-linecap="round"/>
    
    <!-- Data Points -->
    <circle cx="0" cy="70" r="4" fill="#ef4444"/>
    <circle cx="15" cy="50" r="4" fill="#ef4444"/>
    <circle cx="30" cy="30" r="4" fill="#ef4444"/>
    <circle cx="45" cy="45" r="4" fill="#ef4444"/>
    <circle cx="60" cy="20" r="4" fill="#ef4444"/>
    <circle cx="70" cy="35" r="4" fill="#ef4444"/>
    
    <!-- Base Line -->
    <line x1="0" y1="85" x2="70" y2="85" stroke="#64748b" stroke-width="1"/>
  </g>
  
  <!-- Pie Chart Section (Bottom Left) -->
  <g transform="translate(55, 135)">
    <!-- Pie Slices -->
    <path d="M 0 0 L 25 0 A 25 25 0 0 1 17.7 17.7 Z" fill="#f59e0b"/>
    <path d="M 0 0 L 17.7 17.7 A 25 25 0 0 1 -17.7 17.7 Z" fill="#14b8a6"/>
    <path d="M 0 0 L -17.7 17.7 A 25 25 0 0 1 -25 0 Z" fill="#8b5cf6"/>
    <path d="M 0 0 L -25 0 A 25 25 0 1 1 25 0 Z" fill="#f97316"/>
    
    <!-- Center Circle -->
    <circle cx="0" cy="0" r="8" fill="#ffffff"/>
  </g>
  
  <!-- Scatter Plot Section (Bottom Right) -->
  <g transform="translate(95, 135)">
    <!-- Grid -->
    <line x1="0" y1="0" x2="40" y2="0" stroke="#e5e7eb" stroke-width="1"/>
    <line x1="0" y1="10" x2="40" y2="10" stroke="#e5e7eb" stroke-width="1"/>
    <line x1="0" y1="20" x2="40" y2="20" stroke="#e5e7eb" stroke-width="1"/>
    <line x1="0" y1="30" x2="40" y2="30" stroke="#e5e7eb" stroke-width="1"/>
    <line x1="0" y1="40" x2="40" y2="40" stroke="#e5e7eb" stroke-width="1"/>
    
    <line x1="0" y1="0" x2="0" y2="40" stroke="#e5e7eb" stroke-width="1"/>
    <line x1="10" y1="0" x2="10" y2="40" stroke="#e5e7eb" stroke-width="1"/>
    <line x1="20" y1="0" x2="20" y2="40" stroke="#e5e7eb" stroke-width="1"/>
    <line x1="30" y1="0" x2="30" y2="40" stroke="#e5e7eb" stroke-width="1"/>
    <line x1="40" y1="0" x2="40" y2="40" stroke="#e5e7eb" stroke-width="1"/>
    
    <!-- Scatter Points -->
    <circle cx="8" cy="32" r="3" fill="#06b6d4"/>
    <circle cx="15" cy="25" r="3" fill="#06b6d4"/>
    <circle cx="22" cy="18" r="3" fill="#06b6d4"/>
    <circle cx="28" cy="12" r="3" fill="#06b6d4"/>
    <circle cx="35" cy="8" r="3" fill="#06b6d4"/>
    
    <circle cx="5" cy="20" r="3" fill="#10b981"/>
    <circle cx="12" cy="15" r="3" fill="#10b981"/>
    <circle cx="18" cy="30" r="3" fill="#10b981"/>
    <circle cx="25" cy="22" r="3" fill="#10b981"/>
    <circle cx="32" cy="28" r="3" fill="#10b981"/>
  </g>
  
  <!-- Central Icon -->
  <g transform="translate(95, 30)">
    <!-- Chart Icon Background -->
    <circle cx="15" cy="15" r="15" fill="#ffffff" stroke="#3b82f6" stroke-width="2"/>
    
    <!-- Mini Chart Icon -->
    <g transform="translate(8, 8)">
      <rect x="2" y="10" width="3" height="8" fill="#3b82f6"/>
      <rect x="6" y="6" width="3" height="12" fill="#06b6d4"/>
      <rect x="10" y="12" width="3" height="6" fill="#10b981"/>
      <polyline points="2,4 6,2 10,6 14,1" 
                fill="none" stroke="#ef4444" stroke-width="2" stroke-linecap="round"/>
    </g>
  </g>
</svg>
